HIERARCHY
ROOT Hips
{
  OFFSET 52.5945 84.2722 11.4088
  CHANNELS 6 Xposition Yposition Zposition Zrotation Xrotation Yrotation
  JOINT spine
  {
    OFFSET 0 5.95438 0.342407
    CHANNELS 3 Zrotation Xrotation Yrotation
    JOINT spine1
    {
      OFFSET 0 8.85602 0
      CHANNELS 3 Zrotation Xrotation Yrotation
      JOINT spine2
      {
        OFFSET 0 8.48567 0
        CHANNELS 3 Zrotation Xrotation Yrotation
        JOINT Neck
        {
          OFFSET 0 21.7863 1.0387
          CHANNELS 3 Zrotation Xrotation Yrotation
          JOINT Head
          {
            OFFSET 0 6.5822 0
            CHANNELS 3 Zrotation Xrotation Yrotation
            End Site
            {
              OFFSET 0 15.9326 -5.25436
            }
          }
        }
        JOINT RightShoulder
        {
          OFFSET -3.57307 9.16386 -0.497525
          CHANNELS 3 Zrotation Xrotation Yrotation
          JOINT RightArm
          {
            OFFSET 0 12.0192 0
            CHANNELS 3 Zrotation Xrotation Yrotation
            JOINT RightArmRoll
            {
              OFFSET 0 6.06754 0
              CHANNELS 3 Zrotation Xrotation Yrotation
              JOINT RightForeArm
              {
                OFFSET 0 17.6726 0
                CHANNELS 3 Zrotation Xrotation Yrotation
                JOINT RightForeArmRoll
                {
                  OFFSET 0 6.80872 0
                  CHANNELS 3 Zrotation Xrotation Yrotation
                  JOINT RightHand
                  {
                    OFFSET 0 13.6636 0
                    CHANNELS 3 Zrotation Xrotation Yrotation
                    End Site
                    {
                      OFFSET 0 0 0
                    }
                  }
                }
              }
            }
          }
        }
        JOINT LeftShoulder
        {
          OFFSET 3.57307 9.16386 -0.497525
          CHANNELS 3 Zrotation Xrotation Yrotation
          JOINT LeftArm
          {
            OFFSET 0 12.0192 0
            CHANNELS 3 Zrotation Xrotation Yrotation
            JOINT LeftArmRoll
            {
              OFFSET 0 6.06754 0
              CHANNELS 3 Zrotation Xrotation Yrotation
              JOINT LeftForeArm
              {
                OFFSET 0 17.6726 0
                CHANNELS 3 Zrotation Xrotation Yrotation
                JOINT LeftForeArmRoll
                {
                  OFFSET 0 6.80872 0
                  CHANNELS 3 Zrotation Xrotation Yrotation
                  JOINT LeftHand
                  {
                    OFFSET 0 13.6636 0
                    CHANNELS 3 Zrotation Xrotation Yrotation
                    End Site
                    {
                      OFFSET 0 0 0
                    }
                  }
                }
              }
            }
          }
        }
      }
    }
  }
  JOINT RightUpLeg
  {
    OFFSET -5.27774 -0.967797 -0.811858
    CHANNELS 3 Zrotation Xrotation Yrotation
    JOINT RightUpLegRoll
    {
      OFFSET 0 16.0214 0
      CHANNELS 3 Zrotation Xrotation Yrotation
      JOINT RightLeg
      {
        OFFSET 0 -19.8401 0
        CHANNELS 3 Zrotation Xrotation Yrotation
        JOINT RightLegRoll
        {
          OFFSET 0 19.905 0
          CHANNELS 3 Zrotation Xrotation Yrotation
          JOINT RightFoot
          {
            OFFSET 0 16.5675 0
            CHANNELS 3 Zrotation Xrotation Yrotation
            JOINT RightToeBase
            {
              OFFSET 0 13.8496 0
              CHANNELS 3 Zrotation Xrotation Yrotation
              End Site
              {
                OFFSET 0.00587034 6.70728 -0.773117
              }
            }
          }
        }
      }
    }
  }
  JOINT LeftUpLeg
  {
    OFFSET 5.27774 -0.967797 -0.811858
    CHANNELS 3 Zrotation Xrotation Yrotation
    JOINT LeftUpLegRoll
    {
      OFFSET 0 16.0215 0
      CHANNELS 3 Zrotation Xrotation Yrotation
      JOINT LeftLeg
      {
        OFFSET 0 19.84 0
        CHANNELS 3 Zrotation Xrotation Yrotation
        JOINT LeftLegRoll
        {
          OFFSET 0 20.089 0
          CHANNELS 3 Zrotation Xrotation Yrotation
          JOINT LeftFoot
          {
            OFFSET 0 16.3835 0
            CHANNELS 3 Zrotation Xrotation Yrotation
            JOINT LeftToeBase
            {
              OFFSET 0 13.8496 0
              CHANNELS 3 Zrotation Xrotation Yrotation
              End Site
              {
                OFFSET -0.0263083 6.70727 -0.773117
              }
            }
          }
        }
      }
    }
  }
}
MOTION
Frames: 13
Frame Time: 0.00208333
53.6842 83.1559 9.02419 -1.25716 3.00579 83.2016 -1.16948 -2.56043 0.0336487 -2.33375 -1.12073 0.164182 -2.33575 0.523539 0.20312 -42.0614 -10.5789 -8.60072 38.7785 9.69684 -14.8212 47.4747 14.0875 12.2327 165.48 77.1027 -82.7713 -3.01355e-006 -2.41836e-006 -2.33087e-006 -3.64081 -0.0290101 -1.99326 -3.06145e-006 7.88494e-006 -3.01159 8.03005 -4.95112 0.69758 -88.7798 -16.4647 8.36419 -99.0873 43.9189 7.46283 -2.839e-005 -1.79703e-005 5.67611e-006 3.64353 -0.0272031 1.99247 9.30642e-006 -1.95695e-005 3.01161 -8.03009 -4.95136 -0.697592 -176.983 1.46054 -1.00515 -180 7.01536e-015 178.875 -178.174 13.1362 179.167 2.32599e-006 -3.99697e-006 0.484567 -21.7137 71.3111 22.7995 8.36882 27.5153 -5.23863 177.23 18.3942 4.40702 4.54188e-006 -4.6773e-006 -0.794645 -0.559132 -16.0229 0.477054 -8.94159e-007 -3.52444e-006 -0.119914 17.8845 67.0478 -18.7681 -8.1365 25.2327 3.48774 
53.6637 83.1579 8.99909 -1.28374 3.04734 83.1485 -1.16697 -2.5603 0.0347281 -2.3287 -1.12048 0.166515 -2.33073 0.523793 0.205341 -42.0322 -10.552 -8.53256 38.724 9.71339 -14.765 47.5385 14.1019 12.2224 165.262 76.9346 -82.5211 -3.01355e-006 -2.41836e-006 -2.33087e-006 -3.64083 -0.029034 -1.99326 -3.06145e-006 7.88494e-006 -3.01159 8.03005 -4.95112 0.69758 -88.7462 -16.4889 8.374 -98.9628 43.7479 7.30215 -2.839e-005 -1.79703e-005 5.67611e-006 3.64361 -0.0272031 1.99247 9.30642e-006 -1.95695e-005 3.01161 -8.03009 -4.95136 -0.697592 -177.046 1.50986 -0.981796 -180 7.01536e-015 178.876 -178.176 13.1489 179.166 2.32599e-006 -3.99697e-006 0.484801 -21.7154 71.3127 22.8012 8.36771 27.5053 -5.23136 177.197 18.3893 4.42229 4.54188e-006 -4.6773e-006 -0.792949 -0.575425 -15.9649 0.472486 -8.9416e-007 -3.52444e-006 -0.1191 17.8799 67.0413 -18.7632 -8.1365 25.2327 3.48774 
53.6712 83.1651 8.98153 -1.3096 3.08873 83.0929 -1.16437 -2.56011 0.0357938 -2.32346 -1.12012 0.168862 -2.32551 0.524157 0.207573 -42.001 -10.5267 -8.46448 38.6667 9.73095 -14.7083 47.6031 14.1154 12.2111 165.045 76.767 -82.2715 -3.01355e-006 -2.41836e-006 -2.33087e-006 -3.64086 -0.0290578 -1.99326 -3.06145e-006 7.88494e-006 -3.01159 8.03005 -4.95112 0.69758 -88.7101 -16.5136 8.38416 -98.8341 43.5719 7.13616 -2.839e-005 -1.79703e-005 5.67611e-006 3.64368 -0.0272031 1.99247 9.30642e-006 -1.95695e-005 3.01161 -8.03009 -4.95136 -0.697592 -177.109 1.55885 -0.95791 -180 7.01536e-015 178.878 -178.178 13.1618 179.166 2.32599e-006 -3.99697e-006 0.485009 -21.7171 71.3143 22.8028 8.3666 27.4953 -5.22405 177.163 18.3831 4.43757 4.54188e-006 -4.6773e-006 -0.791257 -0.591534 -15.9064 0.467944 -8.9416e-007 -3.52444e-006 -0.118254 17.8755 67.0347 -18.7584 -8.1365 25.2327 3.48774 
53.6919 83.1749 8.97865 -1.33463 3.12991 83.0351 -1.16167 -2.55985 0.0368445 -2.31802 -1.11963 0.17121 -2.3201 0.52466 0.209804 -41.9681 -10.5024 -8.39647 38.6073 9.74901 -14.6511 47.6682 14.1281 12.199 164.827 76.6001 -82.0205 -3.01355e-006 -2.41836e-006 -2.33087e-006 -3.64088 -0.0290815 -1.99327 -3.06145e-006 7.88494e-006 -3.01159 8.03005 -4.95112 0.69758 -88.6715 -16.5387 8.3946 -98.7015 43.3911 6.96521 -2.839e-005 -1.79703e-005 5.67611e-006 3.64374 -0.0272031 1.99247 9.30642e-006 -1.95695e-005 3.01161 -8.03009 -4.95136 -0.697592 -177.173 1.60723 -0.933656 -180 -7.01537e-015 178.88 -178.181 13.1746 179.165 2.32599e-006 -3.99697e-006 0.485204 -21.7187 71.3158 22.8044 8.36545 27.485 -5.21658 177.13 18.3757 4.45282 4.54188e-006 -4.6773e-006 -0.789576 -0.607462 -15.8474 0.463435 -8.94159e-007 -3.52444e-006 -0.117382 17.871 67.0281 -18.7536 -8.1365 25.2327 3.48774 
53.6864 83.1789 8.95527 -1.35874 3.17084 82.9755 -1.15887 -2.55951 0.0378788 -2.31239 -1.11896 0.173549 -2.3145 0.525327 0.212023 -41.9338 -10.4785 -8.32849 38.5461 9.76706 -14.5936 47.7339 14.14 12.1862 164.605 76.4341 -81.7659 -3.01355e-006 -2.41836e-006 -2.33087e-006 -3.64091 -0.0291053 -1.99327 -3.06145e-006 7.88494e-006 -3.01159 8.03005 -4.95112 0.69758 -88.6306 -16.5639 8.40525 -98.5651 43.2054 6.78962 -2.839e-005 -1.79703e-005 5.67611e-006 3.64378 -0.0272031 1.99247 9.30642e-006 -1.95695e-005 3.01161 -8.03009 -4.95136 -0.697592 -177.236 1.65471 -0.909197 -180 7.01537e-015 178.881 -178.183 13.1872 179.164 2.32599e-006 -3.99697e-006 0.485397 -21.7203 71.3173 22.8059 8.36426 27.4744 -5.20881 177.096 18.367 4.468 4.54188e-006 -4.6773e-006 -0.787914 -0.623211 -15.788 0.458965 -8.9416e-007 -3.52444e-006 -0.116492 17.8666 67.0215 -18.7488 -8.1365 25.2327 3.48774 
53.6695 83.1811 8.91907 -1.38187 3.21147 82.9146 -1.15597 -2.55908 0.0388952 -2.30656 -1.11811 0.175865 -2.3087 0.526184 0.21422 -41.8983 -10.4544 -8.26054 38.4838 9.78456 -14.5358 47.8001 14.1511 12.1726 164.378 76.269 -81.5056 -3.01355e-006 -2.41836e-006 -2.33087e-006 -3.64094 -0.029129 -1.99327 -3.06145e-006 7.88494e-006 -3.01159 8.03005 -4.95112 0.69758 -88.5876 -16.5892 8.41603 -98.4253 43.0148 6.6097 -2.839e-005 -1.79703e-005 5.67611e-006 3.64381 -0.0272031 1.99247 9.30642e-006 -1.95695e-005 3.01161 -8.03009 -4.95136 -0.697592 -177.3 1.70103 -0.884697 -180 7.01538e-015 178.883 -178.186 13.1995 179.164 2.32599e-006 -3.99697e-006 0.485601 -21.722 71.3189 22.8075 8.36299 27.4632 -5.20063 177.063 18.3571 4.48308 4.54188e-006 -4.6773e-006 -0.786278 -0.638785 -15.7285 0.454541 -8.9416e-007 -3.52444e-006 -0.115591 17.8622 67.015 -18.7441 -8.1365 25.2327 3.48774 
53.6731 83.1847 8.90237 -1.40392 3.25173 82.8528 -1.15298 -2.55854 0.0398925 -2.30055 -1.11704 0.178149 -2.30272 0.527257 0.216384 -41.862 -10.4294 -8.1926 38.4207 9.80102 -14.4778 47.8668 14.1615 12.1583 164.144 76.105 -81.2379 -3.01355e-006 -2.41836e-006 -2.33087e-006 -3.64096 -0.0291527 -1.99327 -3.06145e-006 7.88494e-006 -3.01159 8.03005 -4.95112 0.69758 -88.5425 -16.6141 8.42687 -98.2823 42.8193 6.4258 -2.839e-005 -1.79703e-005 5.67611e-006 3.6438 -0.0272031 1.99247 9.30642e-006 -1.95695e-005 3.01161 -8.03009 -4.95136 -0.697592 -177.363 1.74592 -0.860318 -180 7.01538e-015 178.884 -178.188 13.2112 179.163 2.32599e-006 -3.99697e-006 0.485827 -21.7239 71.3206 22.8092 8.36161 27.4514 -5.19192 177.03 18.346 4.49803 4.54188e-006 -4.6773e-006 -0.784676 -0.654186 -15.6688 0.450169 -8.94159e-007 -3.52444e-006 -0.114686 17.8578 67.0085 -18.7394 -8.1365 25.2327 3.48774 
53.6864 83.1919 8.90411 -1.4248 3.29158 82.7906 -1.14989 -2.55787 0.0408692 -2.29435 -1.11573 0.180387 -2.29654 0.528574 0.218504 -41.825 -10.4029 -8.12465 38.3576 9.81591 -14.4197 47.9339 14.1713 12.1434 163.901 75.9422 -80.9609 -3.01355e-006 -2.41836e-006 -2.33087e-006 -3.64099 -0.0291764 -1.99327 -3.06145e-006 7.88494e-006 -3.01159 8.03005 -4.95112 0.69758 -88.4957 -16.6386 8.4377 -98.1364 42.6188 6.23823 -2.839e-005 -1.79703e-005 5.67611e-006 3.64377 -0.0272031 1.99247 9.30642e-006 -1.95695e-005 3.01161 -8.03009 -4.95136 -0.697592 -177.425 1.78908 -0.836223 -180 7.01538e-015 178.886 -178.19 13.2223 179.163 2.32599e-006 -3.99697e-006 0.486089 -21.7258 71.3224 22.8111 8.36011 27.4388 -5.18254 176.998 18.3336 4.51282 4.54188e-006 -4.6773e-006 -0.783115 -0.669417 -15.6091 0.445856 -8.9416e-007 -3.52444e-006 -0.113785 17.8535 67.002 -18.7347 -8.1365 25.2327 3.48774 
53.6841 83.1977 8.87716 -1.44445 3.33098 82.7284 -1.14672 -2.55708 0.041824 -2.28797 -1.11415 0.182569 -2.29019 0.53016 0.22057 -41.7876 -10.3742 -8.05667 38.2948 9.8287 -14.3616 48.0013 14.1804 12.128 163.648 75.7806 -80.6728 -3.01355e-006 -2.41836e-006 -2.33087e-006 -3.64101 -0.0292 -1.99327 -3.06145e-006 7.88494e-006 -3.01159 8.03005 -4.95112 0.69758 -88.4471 -16.6624 8.44845 -97.9877 42.4133 6.04731 -2.839e-005 -1.79703e-005 5.67611e-006 3.6437 -0.0272031 1.99247 9.30642e-006 -1.95695e-005 3.01161 -8.03009 -4.95136 -0.697592 -177.486 1.83025 -0.812574 -180 7.01539e-015 178.887 -178.191 13.2324 179.162 2.32599e-006 -3.99697e-006 0.486398 -21.728 71.3244 22.8131 8.35847 27.4251 -5.17238 176.965 18.32 4.52742 4.54188e-006 -4.6773e-006 -0.781604 -0.684481 -15.5495 0.441609 -8.9416e-007 -3.52444e-006 -0.112895 17.8493 66.9957 -18.7301 -8.1365 25.2327 3.48774 
53.6735 83.1982 8.85038 -1.46276 3.36989 82.6667 -1.14345 -2.55613 0.0427554 -2.2814 -1.11227 0.184683 -2.28365 0.532042 0.22257 -41.7502 -10.3428 -7.98866 38.2328 9.83889 -14.3035 48.0691 14.1889 12.112 163.382 75.6203 -80.3719 -3.01355e-006 -2.41836e-006 -2.33087e-006 -3.64104 -0.0292236 -1.99327 -3.06145e-006 7.88494e-006 -3.01159 8.03005 -4.95112 0.69758 -88.3969 -16.6853 8.45903 -97.8366 42.2029 5.85335 -2.839e-005 -1.79703e-005 5.67611e-006 3.64358 -0.0272031 1.99247 9.30642e-006 -1.95695e-005 3.01161 -8.03009 -4.95136 -0.697592 -177.547 1.86916 -0.789536 -180 7.01539e-015 178.889 -178.192 13.2414 179.162 2.32599e-006 -3.99697e-006 0.486765 -21.7305 71.3266 22.8154 8.35665 27.4104 -5.16132 176.933 18.3051 4.54179 4.54188e-006 -4.6773e-006 -0.780148 -0.69938 -15.4902 0.437433 -8.9416e-007 -3.52444e-006 -0.112022 17.8451 66.9894 -18.7256 -8.1365 25.2327 3.48774 
53.6799 83.2091 8.83431 -1.47966 3.40826 82.6059 -1.14008 -2.55503 0.0436621 -2.27465 -1.11007 0.186717 -2.27692 0.534246 0.224495 -41.713 -10.3079 -7.9206 38.1723 9.84596 -14.2457 48.1371 14.1969 12.0956 163.103 75.4615 -80.0567 -3.01355e-006 -2.41836e-006 -2.33087e-006 -3.64107 -0.0292471 -1.99328 -3.06145e-006 7.88494e-006 -3.01159 8.03005 -4.95112 0.69758 -88.3453 -16.707 8.46938 -97.6834 41.9876 5.65667 -2.839e-005 -1.79703e-005 5.67611e-006 3.64341 -0.0272031 1.99247 9.30642e-006 -1.95695e-005 3.01161 -8.03009 -4.95136 -0.697592 -177.605 1.90552 -0.76727 -180 7.01539e-015 178.89 -178.192 13.2493 179.161 2.32599e-006 -3.99697e-006 0.487204 -21.7332 71.3291 22.818 8.35464 27.3943 -5.14922 176.901 18.289 4.5559 4.54188e-006 -4.6773e-006 -0.778757 -0.714119 -15.4312 0.433335 -8.9416e-007 -3.52444e-006 -0.111175 17.8409 66.9833 -18.7211 -8.1365 25.2327 3.48774 
53.6632 83.2104 8.80405 -1.49507 3.44606 82.5464 -1.13663 -2.55375 0.0445427 -2.26772 -1.10752 0.18866 -2.27002 0.536799 0.226334 -41.6762 -10.2691 -7.85246 38.1138 9.84937 -14.1881 48.2054 14.2044 12.0787 162.809 75.3041 -79.7255 -3.01355e-006 -2.41836e-006 -2.33087e-006 -3.64109 -0.0292706 -1.99328 -3.06145e-006 7.88494e-006 -3.01159 8.03005 -4.95112 0.69758 -88.2925 -16.7275 8.47943 -97.5281 41.7673 5.45757 -2.839e-005 -1.79703e-005 5.67611e-006 3.64319 -0.0272031 1.99247 9.30642e-006 -1.95695e-005 3.01161 -8.03009 -4.95136 -0.697592 -177.663 1.93906 -0.74594 -180 7.01539e-015 178.891 -178.191 13.2557 179.16 2.32599e-006 -3.99697e-006 0.487727 -21.7363 71.3319 22.8209 8.35241 27.3768 -5.13597 176.87 18.2717 4.56971 4.54188e-006 -4.6773e-006 -0.777437 -0.728699 -15.3726 0.429322 -8.9416e-007 -3.52444e-006 -0.11036 17.8369 66.9773 -18.7167 -8.1365 25.2327 3.48774 
53.6681 83.2115 8.78606 -1.50917 3.48348 82.4873 -1.13306 -2.55235 0.0453998 -2.26055 -1.10473 0.190529 -2.26287 0.5396 0.228111 -41.6409 -10.2271 -7.78456 38.0574 9.85004 -14.1312 48.2731 14.212 12.0621 162.499 75.1484 -79.3773 -3.01355e-006 -2.41836e-006 -2.33087e-006 -3.64112 -0.029294 -1.99328 -3.06145e-006 7.88494e-006 -3.01159 8.03005 -4.95112 0.69758 -88.2372 -16.7475 8.4895 -97.3683 41.5395 5.2527 -2.839e-005 -1.79703e-005 5.67611e-006 3.64287 -0.0272031 1.99247 9.30642e-006 -1.95695e-005 3.01161 -8.03009 -4.95136 -0.697592 -177.719 1.97054 -0.725223 -180 7.0154e-015 178.892 -178.189 13.2615 179.16 2.32599e-006 -3.99697e-006 0.488383 -21.7401 71.3352 22.8245 8.34996 27.3578 -5.12152 176.838 18.2529 4.5837 4.54188e-006 -4.6773e-006 -0.776161 -0.743074 -15.3135 0.425392 -8.9416e-007 -3.52444e-006 -0.109543 17.8327 66.9711 -18.7122 -8.1365 25.2327 3.48774 
